<mxfile host="65bd71144e">
    <diagram id="_XnFd01qQcLY89W0FCZe" name="Class Diagram">
        <mxGraphModel dx="734" dy="311" grid="1" gridSize="10" guides="1" tooltips="1" connect="1" arrows="1" fold="1" page="1" pageScale="1" pageWidth="850" pageHeight="1100" math="0" shadow="0">
            <root>
                <mxCell id="0"/>
                <mxCell id="1" parent="0"/>
                <mxCell id="5" style="edgeStyle=none;html=1;entryX=0;entryY=0.5;entryDx=0;entryDy=0;" edge="1" parent="1" source="2" target="3">
                    <mxGeometry relative="1" as="geometry"/>
                </mxCell>
                <mxCell id="4GwI6EXYGpByH8aMFaUK-14" style="edgeStyle=none;html=1;entryX=0.5;entryY=0;entryDx=0;entryDy=0;entryPerimeter=0;rounded=1;" edge="1" parent="1" source="2" target="4GwI6EXYGpByH8aMFaUK-13">
                    <mxGeometry relative="1" as="geometry"/>
                </mxCell>
                <mxCell id="2" value="Master" style="rounded=1;whiteSpace=wrap;html=1;" vertex="1" parent="1">
                    <mxGeometry x="100" y="205" width="120" height="60" as="geometry"/>
                </mxCell>
                <mxCell id="11" style="edgeStyle=none;html=1;entryX=0;entryY=0.5;entryDx=0;entryDy=0;" edge="1" parent="1" source="3" target="7">
                    <mxGeometry relative="1" as="geometry"/>
                </mxCell>
                <mxCell id="12" style="edgeStyle=none;html=1;exitX=1;exitY=0.5;exitDx=0;exitDy=0;entryX=0;entryY=0.5;entryDx=0;entryDy=0;" edge="1" parent="1" source="3" target="8">
                    <mxGeometry relative="1" as="geometry"/>
                </mxCell>
                <mxCell id="13" style="edgeStyle=none;html=1;entryX=0;entryY=0.5;entryDx=0;entryDy=0;" edge="1" parent="1" source="3" target="9">
                    <mxGeometry relative="1" as="geometry"/>
                </mxCell>
                <mxCell id="3" value="Notifier" style="ellipse;whiteSpace=wrap;html=1;aspect=fixed;" vertex="1" parent="1">
                    <mxGeometry x="300" y="195" width="80" height="80" as="geometry"/>
                </mxCell>
                <mxCell id="4" value="Use Observer Pattern" style="text;html=1;strokeColor=none;fillColor=none;align=center;verticalAlign=middle;whiteSpace=wrap;rounded=0;" vertex="1" parent="1">
                    <mxGeometry x="270" y="155" width="140" height="30" as="geometry"/>
                </mxCell>
                <mxCell id="7" value="Slave" style="rounded=1;whiteSpace=wrap;html=1;" vertex="1" parent="1">
                    <mxGeometry x="480" y="147.5" width="90" height="45" as="geometry"/>
                </mxCell>
                <mxCell id="8" value="Slave" style="rounded=1;whiteSpace=wrap;html=1;" vertex="1" parent="1">
                    <mxGeometry x="480" y="212.5" width="90" height="45" as="geometry"/>
                </mxCell>
                <mxCell id="9" value="Slave" style="rounded=1;whiteSpace=wrap;html=1;" vertex="1" parent="1">
                    <mxGeometry x="480" y="275" width="90" height="45" as="geometry"/>
                </mxCell>
                <mxCell id="4GwI6EXYGpByH8aMFaUK-13" value="DB" style="shape=cylinder3;whiteSpace=wrap;html=1;boundedLbl=1;backgroundOutline=1;size=15;" vertex="1" parent="1">
                    <mxGeometry x="135.63" y="315" width="48.75" height="70" as="geometry"/>
                </mxCell>
            </root>
        </mxGraphModel>
    </diagram>
    <diagram id="xQZe5Vz7rgph-Ww2jbcv" name="Domain Model">
        <mxGraphModel dx="864" dy="366" grid="1" gridSize="10" guides="1" tooltips="1" connect="1" arrows="1" fold="1" page="1" pageScale="1" pageWidth="850" pageHeight="1100" math="0" shadow="0">
            <root>
                <mxCell id="2fyILHe54LU7t4hqWz4i-0"/>
                <mxCell id="2fyILHe54LU7t4hqWz4i-1" parent="2fyILHe54LU7t4hqWz4i-0"/>
                <mxCell id="Kpv95TxvFnqo9PXZ4grr-2" value="Master" style="swimlane;fontStyle=0;childLayout=stackLayout;horizontal=1;startSize=30;horizontalStack=0;resizeParent=1;resizeParentMax=0;resizeLast=0;collapsible=1;marginBottom=0;" vertex="1" parent="2fyILHe54LU7t4hqWz4i-1">
                    <mxGeometry x="440" y="250" width="230" height="150" as="geometry"/>
                </mxCell>
                <mxCell id="Kpv95TxvFnqo9PXZ4grr-3" value="_idÂ " style="text;strokeColor=none;fillColor=none;align=left;verticalAlign=middle;spacingLeft=4;spacingRight=4;overflow=hidden;points=[[0,0.5],[1,0.5]];portConstraint=eastwest;rotatable=0;" vertex="1" parent="Kpv95TxvFnqo9PXZ4grr-2">
                    <mxGeometry y="30" width="230" height="30" as="geometry"/>
                </mxCell>
                <mxCell id="Kpv95TxvFnqo9PXZ4grr-4" value="name: String" style="text;strokeColor=none;fillColor=none;align=left;verticalAlign=middle;spacingLeft=4;spacingRight=4;overflow=hidden;points=[[0,0.5],[1,0.5]];portConstraint=eastwest;rotatable=0;" vertex="1" parent="Kpv95TxvFnqo9PXZ4grr-2">
                    <mxGeometry y="60" width="230" height="30" as="geometry"/>
                </mxCell>
                <mxCell id="Kpv95TxvFnqo9PXZ4grr-5" value="email: String (unique)" style="text;strokeColor=none;fillColor=none;align=left;verticalAlign=middle;spacingLeft=4;spacingRight=4;overflow=hidden;points=[[0,0.5],[1,0.5]];portConstraint=eastwest;rotatable=0;" vertex="1" parent="Kpv95TxvFnqo9PXZ4grr-2">
                    <mxGeometry y="90" width="230" height="30" as="geometry"/>
                </mxCell>
                <mxCell id="Kpv95TxvFnqo9PXZ4grr-34" value="slave_id: Array" style="text;strokeColor=none;fillColor=none;align=left;verticalAlign=middle;spacingLeft=4;spacingRight=4;overflow=hidden;points=[[0,0.5],[1,0.5]];portConstraint=eastwest;rotatable=0;" vertex="1" parent="Kpv95TxvFnqo9PXZ4grr-2">
                    <mxGeometry y="120" width="230" height="30" as="geometry"/>
                </mxCell>
                <mxCell id="Kpv95TxvFnqo9PXZ4grr-10" value="Slave" style="swimlane;fontStyle=0;childLayout=stackLayout;horizontal=1;startSize=30;horizontalStack=0;resizeParent=1;resizeParentMax=0;resizeLast=0;collapsible=1;marginBottom=0;" vertex="1" parent="2fyILHe54LU7t4hqWz4i-1">
                    <mxGeometry x="130" y="140" width="230" height="150" as="geometry"/>
                </mxCell>
                <mxCell id="Kpv95TxvFnqo9PXZ4grr-11" value="id" style="text;strokeColor=none;fillColor=none;align=left;verticalAlign=middle;spacingLeft=4;spacingRight=4;overflow=hidden;points=[[0,0.5],[1,0.5]];portConstraint=eastwest;rotatable=0;" vertex="1" parent="Kpv95TxvFnqo9PXZ4grr-10">
                    <mxGeometry y="30" width="230" height="30" as="geometry"/>
                </mxCell>
                <mxCell id="Kpv95TxvFnqo9PXZ4grr-12" value="name: String" style="text;strokeColor=none;fillColor=none;align=left;verticalAlign=middle;spacingLeft=4;spacingRight=4;overflow=hidden;points=[[0,0.5],[1,0.5]];portConstraint=eastwest;rotatable=0;" vertex="1" parent="Kpv95TxvFnqo9PXZ4grr-10">
                    <mxGeometry y="60" width="230" height="30" as="geometry"/>
                </mxCell>
                <mxCell id="Kpv95TxvFnqo9PXZ4grr-18" value="email: String (unique)" style="text;strokeColor=none;fillColor=none;align=left;verticalAlign=middle;spacingLeft=4;spacingRight=4;overflow=hidden;points=[[0,0.5],[1,0.5]];portConstraint=eastwest;rotatable=0;" vertex="1" parent="Kpv95TxvFnqo9PXZ4grr-10">
                    <mxGeometry y="90" width="230" height="30" as="geometry"/>
                </mxCell>
                <mxCell id="Kpv95TxvFnqo9PXZ4grr-35" value="master_id: Array" style="text;strokeColor=none;fillColor=none;align=left;verticalAlign=middle;spacingLeft=4;spacingRight=4;overflow=hidden;points=[[0,0.5],[1,0.5]];portConstraint=eastwest;rotatable=0;" vertex="1" parent="Kpv95TxvFnqo9PXZ4grr-10">
                    <mxGeometry y="120" width="230" height="30" as="geometry"/>
                </mxCell>
                <mxCell id="Kpv95TxvFnqo9PXZ4grr-27" value="Signal" style="swimlane;fontStyle=0;childLayout=stackLayout;horizontal=1;startSize=30;horizontalStack=0;resizeParent=1;resizeParentMax=0;resizeLast=0;collapsible=1;marginBottom=0;" vertex="1" parent="2fyILHe54LU7t4hqWz4i-1">
                    <mxGeometry x="440" y="50" width="230" height="150" as="geometry"/>
                </mxCell>
                <mxCell id="Kpv95TxvFnqo9PXZ4grr-28" value="id" style="text;strokeColor=none;fillColor=none;align=left;verticalAlign=middle;spacingLeft=4;spacingRight=4;overflow=hidden;points=[[0,0.5],[1,0.5]];portConstraint=eastwest;rotatable=0;" vertex="1" parent="Kpv95TxvFnqo9PXZ4grr-27">
                    <mxGeometry y="30" width="230" height="30" as="geometry"/>
                </mxCell>
                <mxCell id="Kpv95TxvFnqo9PXZ4grr-29" value="state" style="text;strokeColor=none;fillColor=none;align=left;verticalAlign=middle;spacingLeft=4;spacingRight=4;overflow=hidden;points=[[0,0.5],[1,0.5]];portConstraint=eastwest;rotatable=0;" vertex="1" parent="Kpv95TxvFnqo9PXZ4grr-27">
                    <mxGeometry y="60" width="230" height="30" as="geometry"/>
                </mxCell>
                <mxCell id="Kpv95TxvFnqo9PXZ4grr-30" value="master" style="text;strokeColor=none;fillColor=none;align=left;verticalAlign=middle;spacingLeft=4;spacingRight=4;overflow=hidden;points=[[0,0.5],[1,0.5]];portConstraint=eastwest;rotatable=0;" vertex="1" parent="Kpv95TxvFnqo9PXZ4grr-27">
                    <mxGeometry y="90" width="230" height="30" as="geometry"/>
                </mxCell>
                <mxCell id="Kpv95TxvFnqo9PXZ4grr-31" value="slave" style="text;strokeColor=none;fillColor=none;align=left;verticalAlign=middle;spacingLeft=4;spacingRight=4;overflow=hidden;points=[[0,0.5],[1,0.5]];portConstraint=eastwest;rotatable=0;" vertex="1" parent="Kpv95TxvFnqo9PXZ4grr-27">
                    <mxGeometry y="120" width="230" height="30" as="geometry"/>
                </mxCell>
                <mxCell id="Kpv95TxvFnqo9PXZ4grr-32" value="" style="endArrow=none;dashed=1;html=1;rounded=1;entryX=0;entryY=0.5;entryDx=0;entryDy=0;exitX=1;exitY=0.5;exitDx=0;exitDy=0;" edge="1" parent="2fyILHe54LU7t4hqWz4i-1" source="Kpv95TxvFnqo9PXZ4grr-11" target="Kpv95TxvFnqo9PXZ4grr-31">
                    <mxGeometry width="50" height="50" relative="1" as="geometry">
                        <mxPoint x="370" y="185" as="sourcePoint"/>
                        <mxPoint x="420" y="150" as="targetPoint"/>
                    </mxGeometry>
                </mxCell>
                <mxCell id="Kpv95TxvFnqo9PXZ4grr-33" value="" style="endArrow=none;dashed=1;html=1;rounded=1;entryX=0;entryY=0.5;entryDx=0;entryDy=0;exitX=0;exitY=0.5;exitDx=0;exitDy=0;" edge="1" parent="2fyILHe54LU7t4hqWz4i-1" source="Kpv95TxvFnqo9PXZ4grr-3" target="Kpv95TxvFnqo9PXZ4grr-30">
                    <mxGeometry width="50" height="50" relative="1" as="geometry">
                        <mxPoint x="400" y="300" as="sourcePoint"/>
                        <mxPoint x="600" y="150" as="targetPoint"/>
                        <Array as="points">
                            <mxPoint x="400" y="295"/>
                            <mxPoint x="400" y="155"/>
                        </Array>
                    </mxGeometry>
                </mxCell>
            </root>
        </mxGraphModel>
    </diagram>
</mxfile>